<?xml version="1.0" encoding="UTF-8" standalone="no"?>
<svg width="36px" height="36px" viewBox="0 0 36 36" version="1.1" xmlns="http://www.w3.org/2000/svg" xmlns:xlink="http://www.w3.org/1999/xlink">
    <!-- Generator: Sketch 46.2 (44496) - http://www.bohemiancoding.com/sketch -->
    <title>menu/menu_trash</title>
    <desc>Created with Sketch.</desc>
    <defs></defs>
    <g id="asset" stroke="none" stroke-width="1" fill="none" fill-rule="evenodd">
        <g id="Artboard-Copy" transform="translate(-240.000000, -31.000000)" fill="#545454">
            <g id="Group" transform="translate(240.000000, 31.000000)">
                <path d="M10.1277341,13 L25.8722659,13 L25.8722659,13 C25.93854,13 25.9922659,13.0537258 25.9922659,13.12 C25.9922659,13.122497 25.9921879,13.1249933 25.9920322,13.1274854 L25.0070322,28.8874854 L25.0070322,28.8874854 C25.0030794,28.9507296 24.9506334,29 24.8872659,29 L11.1127341,29 L11.1127341,29 C11.0493666,29 10.9969206,28.9507296 10.9929678,28.8874854 L10.0079678,13.1274854 L10.0079678,13.1274854 C10.0038338,13.0613403 10.0541036,13.0043678 10.1202488,13.0002337 C10.1227408,13.0000779 10.1252372,13 10.1277341,13 Z" id="Rectangle-21"></path>
                <path d="M13.447089,8 L22.552911,8 L22.552911,8 C22.7724776,8 22.9745085,8.11993224 23.0796484,8.31268872 L24,10 L12,10 L12.9203516,8.31268872 L12.9203516,8.31268872 C13.0254915,8.11993224 13.2275224,8 13.447089,8 Z" id="Rectangle-22" opacity="0.900000036"></path>
                <path d="M9.1,9.99997271 L26.9,9.99997271 L26.9,9.99997271 C26.9552285,9.99997271 27,10.0447442 27,10.0999727 L27,11.9999727 L9,11.9999727 L9,10.0999727 L9,10.0999727 C9,10.0447442 9.04477153,9.99997271 9.1,9.99997271 Z" id="Rectangle-22-Copy"></path>
            </g>
        </g>
    </g>
</svg>